# xmcd
# Copyright (C) 1995-1998 Ti Kan
#
# Track frame offsets:
#       150
#       21232
#       34175
#       55634
#       82147
#       106760
#       128401
#
# Disc length: 2237 seconds
#
# Revision: 0
# Processed by: cddbd v1.5.2PL0 Copyright (c) Steve Scherf et al.
# Submitted via: CD-Import v1.0
#
DISCID=4d08bb07
DTITLE=Alexi Murdoch - Towards The Sun
DYEAR=11
DGENRE=
TTITLE0=Toward The Sun
TTITLE1=At Your Door
TTITLE2=Some Day Soon
TTITLE3=Slow Revolution
TTITLE4=Through The Dark
TTITLE5=The Light (Her Hands Were Leaves)
TTITLE6=Crinan Wood
EXTD=
EXTT0=
EXTT1=
EXTT2=
EXTT3=
EXTT4=
EXTT5=
EXTT6=
PLAYORDER=
